<svg xmlns="http://www.w3.org/2000/svg" xmlns:xlink="http://www.w3.org/1999/xlink" viewBox="0 0 275 55"><defs><style>.a{fill:none;}.b{clip-path:url(#a);}.c{fill:#fff;}</style><clipPath id="a"><rect class="a" x="9.7189" y="5.3241" width="255.5623" height="44.3519"/></clipPath></defs><g class="b"><g class="b"><path class="c" d="M57.8034,32.0241a13.1354,13.1354,0,0,0,8.641,3.5831c3.32,0,5.0063-1.2119,5.0063-3.1088,0-2.2133-2.6873-3.0036-5.7964-3.6884-4.3735-.9486-9.59-2.108-9.59-7.7986,0-4.1625,3.5831-7.7456,10.0114-7.7456a14.548,14.548,0,0,1,9.906,3.5831l-2.3185,3.8987a10.264,10.264,0,0,0-7.5348-3.0558c-2.898,0-4.7425,1.0541-4.7425,2.8453,0,1.95,2.5293,2.6348,5.5329,3.32,4.426.9482,9.8537,2.2128,9.8537,8.22,0,4.479-3.7416,7.9041-10.5913,7.9041a15.4781,15.4781,0,0,1-10.9072-3.952Z"/><path class="c" d="M79.5605,26.5968c0-7.2715,5.0058-13.3312,13.0677-13.3312,8.1671,0,13.12,6.06,13.12,13.3312,0,7.3243-4.9531,13.3837-13.12,13.3837-8.0619,0-13.0677-6.0594-13.0677-13.3837m20.4443,0c0-4.4787-2.6346-8.4307-7.3766-8.4307-4.69,0-7.3245,3.952-7.3245,8.4307,0,4.5315,2.635,8.4834,7.3245,8.4834,4.742,0,7.3766-3.9519,7.3766-8.4834"/><path class="c" d="M127.2959,23.4353c0-3.9522-2.0024-5.2691-5.1113-5.2691a8.3771,8.3771,0,0,0-6.5339,3.4249V39.3482h-5.5326V13.898h5.5326v3.4774a12.0429,12.0429,0,0,1,8.9575-4.11c5.48,0,8.22,2.9508,8.22,8.1671V39.3482h-5.5324Z"/><path class="c" d="M154.7277,36.6083a10.7442,10.7442,0,0,1-8.22,3.3723c-4.1625,0-8.8523-2.7928-8.8523-8.4307,0-5.8486,4.69-8.2728,8.8523-8.2728,3.4251,0,6.3759,1.1066,8.22,3.267V22.75c0-2.9508-2.4238-4.7425-5.9544-4.7425a10.4211,10.4211,0,0,0-7.5348,3.2144l-2.2658-3.8467a15.1356,15.1356,0,0,1,10.6964-4.11c5.6386,0,10.5912,2.371,10.5912,9.221V39.3483h-5.5326Zm0-6.9026a7.4491,7.4491,0,0,0-6.06-2.635c-3.1086,0-5.4271,1.7919-5.4271,4.5845,0,2.74,2.3185,4.5315,5.4271,4.5315a7.45,7.45,0,0,0,6.06-2.6345Z"/><path class="c" d="M168.5333,33.4468V18.7457h-4.2155V13.8979h4.2155V6.9426h5.5324v6.9553h5.164v4.8478h-5.164V32.0766c0,1.7389.843,3.0036,2.424,3.0036a3.5729,3.5729,0,0,0,2.4765-.8956l1.3174,4.1627c-1.0012.9481-2.6346,1.6332-5.2166,1.6332-4.2682,0-6.5337-2.3185-6.5337-6.5337"/><path class="c" d="M187.2194,44.7755a3.4475,3.4475,0,0,0,3.6359-2.2128l1.2646-2.8982L181.6868,13.8979h5.9014l7.43,19.0744,7.4295-19.0744h5.9544L196.1246,43.9322c-1.7389,4.3212-4.795,5.6909-8.7467,5.7438a15.6472,15.6472,0,0,1-3.1093-.3688l.8431-4.9532a5.7839,5.7839,0,0,0,2.1077.4215"/><path class="c" d="M211.0686,49.0437V13.8979h5.5329v3.4776a10.1546,10.1546,0,0,1,8.1671-4.11c6.5867,0,11.2762,4.953,11.2762,13.3312s-4.69,13.3837-11.2762,13.3837a9.9918,9.9918,0,0,1-8.1671-4.1625V49.0437Zm12.0666-30.8776a8.2573,8.2573,0,0,0-6.5337,3.4249V31.6553a8.4084,8.4084,0,0,0,6.5337,3.4249c4.3732,0,7.166-3.53,7.166-8.4834,0-4.9-2.7928-8.4307-7.166-8.4307"/><path class="c" d="M252.74,13.2656c7.64,0,12.5408,5.8489,12.5408,13.858v1.3176H245.6266a7.7088,7.7088,0,0,0,8.1149,7.008,10.7709,10.7709,0,0,0,7.2186-2.7928l2.5292,3.6357a14.8347,14.8347,0,0,1-10.3276,3.6884c-7.6405,0-13.331-5.3218-13.331-13.3837,0-7.3771,5.3746-13.3312,12.9095-13.3312m-7.1663,11.276h14.3323a6.8071,6.8071,0,0,0-7.166-6.7445c-4.7421,0-6.9026,3.6359-7.1663,6.7445"/><path class="c" d="M28.1644,5.324,9.7188,15.9735V37.2726l18.4456,10.65L46.61,37.2726V15.9735ZM41.319,34.2181,28.1644,41.8127,15.01,34.2181v-15.19l13.1543-7.5946L41.319,19.0283v15.19Z"/></g></g></svg>